# xmcd
#
# Track frame offsets: 
#        150
#        13602
#        32220
#        43727
#        57707
#        70027
#        81027
#        93400
#        106102
#        118242
#        135767
#
# Disc length: 2010 seconds
#
# Revision: 2
# Processed by: cddbd v1.4PL0 Copyright (c) Steve Scherf et al.
# Submitted via: ExactAudioCopy v0.90b4
#
DISCID=8c07d80b
DTITLE=Rex Allen And Don Edwards - A Pair To Draw To
DYEAR=1999
DGENRE=Country
TTITLE0=It's My Lazy Day
TTITLE1=This Ain'tThe Same Old Range
TTITLE2=Cowpoke
TTITLE3=Sunset Trail
TTITLE4=Blue Canadian Rockies
TTITLE5=There's A Brida Hanging On The Wall
TTITLE6=Doggone Cowboy
TTITLE7=Summer Night's Rain
TTITLE8=There's Nobody Home On The Range Anymore
TTITLE9=Old Home Town 
TTITLE10=Emty Saddles
EXTD=YEAR: 1999 ID3G: 2
EXTT0=
EXTT1=
EXTT2=
EXTT3=
EXTT4=
EXTT5=
EXTT6=
EXTT7=
EXTT8=
EXTT9=
EXTT10=
PLAYORDER=
